<mxfile host="app.diagrams.net" modified="2024-05-24T08:00:52.000Z" agent="Mozilla/5.0 (Windows NT 10.0; Win64; x64) AppleWebKit/537.36 (KHTML, like Gecko) Chrome/125.0.0.0 Safari/537.36 Edg/125.0.0.0" etag="JN6TQSbVa_49rNZ7DIcT" version="24.4.7" type="github">
  <diagram name="第 1 页" id="HnMXz_LL6Je0xyYoDn2D">
    <mxGraphModel dx="1501" dy="826" grid="1" gridSize="10" guides="1" tooltips="1" connect="1" arrows="1" fold="1" page="1" pageScale="1" pageWidth="827" pageHeight="1169" math="0" shadow="0">
      <root>
        <mxCell id="0" />
        <mxCell id="1" parent="0" />
        <mxCell id="FBOplhWMZ7j2H6tYudXU-1" value="用户" style="shape=umlActor;verticalLabelPosition=bottom;verticalAlign=top;html=1;outlineConnect=0;fontSize=21;" vertex="1" parent="1">
          <mxGeometry x="120" y="110" width="30" height="60" as="geometry" />
        </mxCell>
        <mxCell id="FBOplhWMZ7j2H6tYudXU-2" value="产品页面类UI" style="rounded=0;whiteSpace=wrap;html=1;fontSize=21;" vertex="1" parent="1">
          <mxGeometry x="260" y="120" width="120" height="60" as="geometry" />
        </mxCell>
        <mxCell id="FBOplhWMZ7j2H6tYudXU-3" value="产品业务类BLL" style="rounded=0;whiteSpace=wrap;html=1;fontSize=21;" vertex="1" parent="1">
          <mxGeometry x="490" y="120" width="120" height="60" as="geometry" />
        </mxCell>
        <mxCell id="FBOplhWMZ7j2H6tYudXU-4" value="数据访问类DAL" style="rounded=0;whiteSpace=wrap;html=1;fontSize=21;" vertex="1" parent="1">
          <mxGeometry x="720" y="120" width="120" height="60" as="geometry" />
        </mxCell>
        <mxCell id="FBOplhWMZ7j2H6tYudXU-5" value="" style="endArrow=none;dashed=1;html=1;dashPattern=1 3;strokeWidth=2;rounded=0;" edge="1" parent="1">
          <mxGeometry width="50" height="50" relative="1" as="geometry">
            <mxPoint x="134.29" y="970" as="sourcePoint" />
            <mxPoint x="134.7" y="200" as="targetPoint" />
          </mxGeometry>
        </mxCell>
        <mxCell id="FBOplhWMZ7j2H6tYudXU-6" value="" style="endArrow=none;dashed=1;html=1;dashPattern=1 3;strokeWidth=2;rounded=0;fontSize=21;" edge="1" parent="1" source="FBOplhWMZ7j2H6tYudXU-40">
          <mxGeometry width="50" height="50" relative="1" as="geometry">
            <mxPoint x="319" y="950" as="sourcePoint" />
            <mxPoint x="319.41" y="190" as="targetPoint" />
          </mxGeometry>
        </mxCell>
        <mxCell id="FBOplhWMZ7j2H6tYudXU-7" value="" style="endArrow=none;dashed=1;html=1;dashPattern=1 3;strokeWidth=2;rounded=0;fontSize=21;" edge="1" parent="1">
          <mxGeometry width="50" height="50" relative="1" as="geometry">
            <mxPoint x="549.4099999999999" y="609.9999999999998" as="sourcePoint" />
            <mxPoint x="549.41" y="190" as="targetPoint" />
          </mxGeometry>
        </mxCell>
        <mxCell id="FBOplhWMZ7j2H6tYudXU-8" value="" style="endArrow=none;dashed=1;html=1;dashPattern=1 3;strokeWidth=2;rounded=0;" edge="1" parent="1">
          <mxGeometry width="50" height="50" relative="1" as="geometry">
            <mxPoint x="779" y="960" as="sourcePoint" />
            <mxPoint x="779.41" y="190" as="targetPoint" />
          </mxGeometry>
        </mxCell>
        <mxCell id="FBOplhWMZ7j2H6tYudXU-9" value="" style="endArrow=classic;html=1;rounded=0;fontSize=21;" edge="1" parent="1">
          <mxGeometry width="50" height="50" relative="1" as="geometry">
            <mxPoint x="130" y="240" as="sourcePoint" />
            <mxPoint x="320" y="240" as="targetPoint" />
          </mxGeometry>
        </mxCell>
        <mxCell id="FBOplhWMZ7j2H6tYudXU-10" value="1.输入供应商信息查询参数" style="edgeLabel;html=1;align=center;verticalAlign=middle;resizable=0;points=[];fontSize=21;" vertex="1" connectable="0" parent="FBOplhWMZ7j2H6tYudXU-9">
          <mxGeometry x="0.018" y="-2" relative="1" as="geometry">
            <mxPoint y="-12" as="offset" />
          </mxGeometry>
        </mxCell>
        <mxCell id="FBOplhWMZ7j2H6tYudXU-11" value="" style="endArrow=classic;html=1;rounded=0;fontSize=21;" edge="1" parent="1">
          <mxGeometry width="50" height="50" relative="1" as="geometry">
            <mxPoint x="320" y="290" as="sourcePoint" />
            <mxPoint x="550" y="290" as="targetPoint" />
          </mxGeometry>
        </mxCell>
        <mxCell id="FBOplhWMZ7j2H6tYudXU-12" value="2.查询" style="edgeLabel;html=1;align=center;verticalAlign=middle;resizable=0;points=[];fontSize=21;" vertex="1" connectable="0" parent="FBOplhWMZ7j2H6tYudXU-11">
          <mxGeometry x="0.4124" y="-4" relative="1" as="geometry">
            <mxPoint x="-43" y="-14" as="offset" />
          </mxGeometry>
        </mxCell>
        <mxCell id="FBOplhWMZ7j2H6tYudXU-18" value="" style="endArrow=classic;html=1;rounded=0;fontSize=21;" edge="1" parent="1">
          <mxGeometry width="50" height="50" relative="1" as="geometry">
            <mxPoint x="555" y="360" as="sourcePoint" />
            <mxPoint x="785" y="360" as="targetPoint" />
            <Array as="points">
              <mxPoint x="655" y="360" />
            </Array>
          </mxGeometry>
        </mxCell>
        <mxCell id="FBOplhWMZ7j2H6tYudXU-19" value="3.提交业务逻辑" style="edgeLabel;html=1;align=center;verticalAlign=middle;resizable=0;points=[];fontSize=21;" vertex="1" connectable="0" parent="FBOplhWMZ7j2H6tYudXU-18">
          <mxGeometry x="0.4362" y="-3" relative="1" as="geometry">
            <mxPoint x="-45" y="-13" as="offset" />
          </mxGeometry>
        </mxCell>
        <mxCell id="FBOplhWMZ7j2H6tYudXU-25" value="" style="endArrow=classic;html=1;rounded=0;fontSize=21;" edge="1" parent="1">
          <mxGeometry width="50" height="50" relative="1" as="geometry">
            <mxPoint x="550" y="489.9999999999999" as="sourcePoint" />
            <mxPoint x="320" y="489.9999999999999" as="targetPoint" />
          </mxGeometry>
        </mxCell>
        <mxCell id="FBOplhWMZ7j2H6tYudXU-26" value="" style="endArrow=classic;html=1;rounded=0;dashed=1;dashPattern=8 8;fontSize=21;" edge="1" parent="1">
          <mxGeometry width="50" height="50" relative="1" as="geometry">
            <mxPoint x="780" y="469.9999999999999" as="sourcePoint" />
            <mxPoint x="550" y="469.9999999999999" as="targetPoint" />
          </mxGeometry>
        </mxCell>
        <mxCell id="FBOplhWMZ7j2H6tYudXU-27" value="4.返回数据" style="edgeLabel;html=1;align=center;verticalAlign=middle;resizable=0;points=[];fontSize=21;" vertex="1" connectable="0" parent="FBOplhWMZ7j2H6tYudXU-26">
          <mxGeometry x="0.2435" y="-1" relative="1" as="geometry">
            <mxPoint x="13" y="-19" as="offset" />
          </mxGeometry>
        </mxCell>
        <mxCell id="FBOplhWMZ7j2H6tYudXU-28" value="5.显示查询到的数据" style="text;html=1;align=center;verticalAlign=middle;resizable=0;points=[];autosize=1;strokeColor=none;fillColor=none;fontSize=21;" vertex="1" parent="1">
          <mxGeometry x="285" y="463" width="210" height="40" as="geometry" />
        </mxCell>
        <mxCell id="FBOplhWMZ7j2H6tYudXU-35" value="" style="endArrow=classic;html=1;rounded=0;fontSize=21;" edge="1" parent="1">
          <mxGeometry width="50" height="50" relative="1" as="geometry">
            <mxPoint x="551" y="569.9999999999999" as="sourcePoint" />
            <mxPoint x="321" y="569.9999999999999" as="targetPoint" />
          </mxGeometry>
        </mxCell>
        <mxCell id="FBOplhWMZ7j2H6tYudXU-36" value="6.显示错误" style="edgeLabel;html=1;align=center;verticalAlign=middle;resizable=0;points=[];fontSize=21;" vertex="1" connectable="0" parent="FBOplhWMZ7j2H6tYudXU-35">
          <mxGeometry x="0.5841" y="3" relative="1" as="geometry">
            <mxPoint x="63" y="-13" as="offset" />
          </mxGeometry>
        </mxCell>
        <mxCell id="FBOplhWMZ7j2H6tYudXU-39" value="" style="endArrow=none;dashed=1;html=1;dashPattern=1 3;strokeWidth=2;rounded=0;fontSize=21;" edge="1" parent="1" source="FBOplhWMZ7j2H6tYudXU-55" target="FBOplhWMZ7j2H6tYudXU-40">
          <mxGeometry width="50" height="50" relative="1" as="geometry">
            <mxPoint x="319" y="950" as="sourcePoint" />
            <mxPoint x="319.41" y="190" as="targetPoint" />
          </mxGeometry>
        </mxCell>
        <mxCell id="FBOplhWMZ7j2H6tYudXU-40" value="" style="html=1;points=[[0,0,0,0,5],[0,1,0,0,-5],[1,0,0,0,5],[1,1,0,0,-5]];perimeter=orthogonalPerimeter;outlineConnect=0;targetShapes=umlLifeline;portConstraint=eastwest;newEdgeStyle={&quot;curved&quot;:0,&quot;rounded&quot;:0};fontSize=21;" vertex="1" parent="1">
          <mxGeometry x="315" y="240" width="10" height="50" as="geometry" />
        </mxCell>
        <mxCell id="FBOplhWMZ7j2H6tYudXU-41" value="" style="html=1;points=[[0,0,0,0,5],[0,1,0,0,-5],[1,0,0,0,5],[1,1,0,0,-5]];perimeter=orthogonalPerimeter;outlineConnect=0;targetShapes=umlLifeline;portConstraint=eastwest;newEdgeStyle={&quot;curved&quot;:0,&quot;rounded&quot;:0};fontSize=21;" vertex="1" parent="1">
          <mxGeometry x="545" y="290" width="10" height="70" as="geometry" />
        </mxCell>
        <mxCell id="FBOplhWMZ7j2H6tYudXU-43" value="" style="html=1;points=[[0,0,0,0,5],[0,1,0,0,-5],[1,0,0,0,5],[1,1,0,0,-5]];perimeter=orthogonalPerimeter;outlineConnect=0;targetShapes=umlLifeline;portConstraint=eastwest;newEdgeStyle={&quot;curved&quot;:0,&quot;rounded&quot;:0};fontSize=21;" vertex="1" parent="1">
          <mxGeometry x="545" y="472" width="10" height="18" as="geometry" />
        </mxCell>
        <mxCell id="FBOplhWMZ7j2H6tYudXU-47" value="" style="endArrow=none;dashed=1;html=1;dashPattern=1 3;strokeWidth=2;rounded=0;" edge="1" parent="1">
          <mxGeometry width="50" height="50" relative="1" as="geometry">
            <mxPoint x="319" y="950" as="sourcePoint" />
            <mxPoint x="319" y="729.9999999999998" as="targetPoint" />
          </mxGeometry>
        </mxCell>
        <mxCell id="FBOplhWMZ7j2H6tYudXU-42" value="" style="html=1;points=[[0,0,0,0,5],[0,1,0,0,-5],[1,0,0,0,5],[1,1,0,0,-5]];perimeter=orthogonalPerimeter;outlineConnect=0;targetShapes=umlLifeline;portConstraint=eastwest;newEdgeStyle={&quot;curved&quot;:0,&quot;rounded&quot;:0};fontSize=21;" vertex="1" parent="1">
          <mxGeometry x="775" y="360" width="10" height="120" as="geometry" />
        </mxCell>
        <mxCell id="FBOplhWMZ7j2H6tYudXU-54" value="" style="endArrow=none;dashed=1;html=1;dashPattern=1 3;strokeWidth=2;rounded=0;fontSize=21;" edge="1" parent="1" source="FBOplhWMZ7j2H6tYudXU-62" target="FBOplhWMZ7j2H6tYudXU-55">
          <mxGeometry width="50" height="50" relative="1" as="geometry">
            <mxPoint x="320" y="699.9999999999998" as="sourcePoint" />
            <mxPoint x="320" y="290" as="targetPoint" />
          </mxGeometry>
        </mxCell>
        <mxCell id="FBOplhWMZ7j2H6tYudXU-55" value="" style="html=1;points=[[0,0,0,0,5],[0,1,0,0,-5],[1,0,0,0,5],[1,1,0,0,-5]];perimeter=orthogonalPerimeter;outlineConnect=0;targetShapes=umlLifeline;portConstraint=eastwest;newEdgeStyle={&quot;curved&quot;:0,&quot;rounded&quot;:0};fontSize=21;" vertex="1" parent="1">
          <mxGeometry x="311" y="486" width="10" height="50" as="geometry" />
        </mxCell>
        <mxCell id="FBOplhWMZ7j2H6tYudXU-57" value="" style="endArrow=none;dashed=1;html=1;dashPattern=1 3;strokeWidth=2;rounded=0;" edge="1" parent="1">
          <mxGeometry width="50" height="50" relative="1" as="geometry">
            <mxPoint x="550" y="960" as="sourcePoint" />
            <mxPoint x="550" y="639.9999999999998" as="targetPoint" />
          </mxGeometry>
        </mxCell>
        <mxCell id="FBOplhWMZ7j2H6tYudXU-61" value="" style="endArrow=none;dashed=1;html=1;dashPattern=1 3;strokeWidth=2;rounded=0;fontSize=21;" edge="1" parent="1" target="FBOplhWMZ7j2H6tYudXU-62">
          <mxGeometry width="50" height="50" relative="1" as="geometry">
            <mxPoint x="320" y="699.9999999999998" as="sourcePoint" />
            <mxPoint x="320" y="536" as="targetPoint" />
          </mxGeometry>
        </mxCell>
        <mxCell id="FBOplhWMZ7j2H6tYudXU-62" value="" style="html=1;points=[[0,0,0,0,5],[0,1,0,0,-5],[1,0,0,0,5],[1,1,0,0,-5]];perimeter=orthogonalPerimeter;outlineConnect=0;targetShapes=umlLifeline;portConstraint=eastwest;newEdgeStyle={&quot;curved&quot;:0,&quot;rounded&quot;:0};fontSize=21;" vertex="1" parent="1">
          <mxGeometry x="315" y="570" width="10" height="50" as="geometry" />
        </mxCell>
      </root>
    </mxGraphModel>
  </diagram>
</mxfile>
